<svg width="24" height="24" viewBox="0 0 24 24" fill="none" xmlns="http://www.w3.org/2000/svg">
<g clip-path="url(#clip0_1009_243)">
<rect width="24" height="24" rx="5" fill="white"/>
<path d="M14.6255 13.2929C15.7385 13.2929 16.717 14.905 15.7385 15.7786C14.2704 17.0893 12.2807 17.8062 10.168 17.601C6.15213 17.2109 3.21261 13.637 3.60237 9.6184C3.99212 5.59979 7.56356 2.65825 11.5794 3.04828C13.2421 3.20978 14.3883 3.56124 15.5221 4.61994C16.6107 5.63642 15.9538 7.3078 14.432 7.33164L14.061 7.33164C13.5401 7.28105 13.1825 7.0316 12.7187 6.78903C12.2772 6.55817 11.7849 6.40682 11.2586 6.35571C9.06816 6.14297 7.12011 7.74744 6.90751 9.93941C6.69492 12.1314 8.29829 14.0808 10.4888 14.2935C11.2665 14.3691 12.0136 14.2155 12.6634 13.888C13.2943 13.5699 13.7621 13.2929 14.6255 13.2929Z" fill="#45DE8F"/>
<path d="M11.6172 12.7086C10.5042 12.7086 9.52573 11.0964 10.5042 10.2229C11.9723 8.91219 13.962 8.1953 16.0747 8.40049C20.0906 8.79053 23.0301 12.3645 22.6403 16.3831C22.2506 20.4017 18.6791 23.3432 14.6633 22.9532C13.0006 22.7917 11.8544 22.4402 10.7206 21.3815C9.63204 20.365 10.2889 18.6937 11.8107 18.6698L12.1817 18.6698C12.7026 18.7204 13.0602 18.9699 13.5241 19.2124C13.9655 19.4433 14.4578 19.5946 14.9841 19.6458C17.1745 19.8585 19.1226 18.254 19.3352 16.0621C19.5478 13.8701 17.9444 11.9207 15.754 11.7079C14.9762 11.6324 14.2291 11.7859 13.5793 12.1135C12.9484 12.4316 12.4806 12.7086 11.6172 12.7086Z" fill="#0050C8"/>
</g>
<defs>
<clipPath id="clip0_1009_243">
<rect width="24" height="24" fill="white"/>
</clipPath>
</defs>
</svg>
